<svg enable-background="new 0 0 1024 600" height="1000" viewBox="0 0 999.99998 1000" width="1000" xmlns="http://www.w3.org/2000/svg"><g transform="translate(-845.48045 763.71612)"><text x="856.4585" y="221.68475"><tspan x="856.4585" y="221.68475"/></text><g transform="matrix(95.975305 0 0 95.975305 -80286.315 -22406.66)"><path d="m850.49692 225.90705c-.19586.0105-.22878.0256-.6875.28906-.19664.11295-.39039.22234-.42969.24414s-.13273.0754-.20703.11914c-.0743.0437-.15886.0941-.18946.11133-.0506.0285-.31814.18111-1.23242.70703-.17479.10055-.33903.19604-.36523.21094s-.187.10658-.35742.20508-.3369.19429-.3711.21289c-.10129.055-.25159.21432-.30859.32812-.1052.20922-.0977.0771-.0977 2.36914 0 2.02002.00092 2.14682.0449 2.26172.0746.19489.16917.31924.32032.42188.0509.0345.0956.0644.0996.0644s.0859.0448.18359.10156c.0978.0568.18059.10352.18359.10352s.0519.0289.10742.0625c.0555.0336.13258.0794.17188.10156.0906.0512.3746.2131.4375.25.0262.0154.11963.0689.20703.11914.0874.0502.17888.10374.20508.11914.0563.0331.44607.25635.54883.31445.0393.0222.11637.068.17187.10157.0555.0336.10442.0605.10742.0605s.0643.0356.13672.0781c.0724.0425.16383.0952.20313.11719.0393.022.22616.12733.41406.23632.40916.23729.44356.25412.60352.29102.11279.0262.14933.0279.26367.008.0892-.0157.25055-.0698.28515-.0957.0167-.0125.16218-.0973.30664-.17774.0471-.0262.2339-.13338.41407-.23828.18017-.10489.35913-.20837.39843-.23047.0631-.0355.62997-.36069.75586-.43359.0897-.052.36485-.21.43555-.25.0389-.022.10619-.0617.15039-.0879.0943-.056.16537-.0958.26367-.15039.0393-.0218.13274-.0753.20703-.11914.0743-.0437.17456-.10261.22266-.12891s.12382-.0704.16992-.0996c.046-.0292.0878-.0527.0918-.0527.0294 0 .19212-.12517.26172-.20117.10029-.10954.16376-.24035.19726-.40039.0365-.17408.0384-4.10535.002-4.28125-.0308-.14897-.10076-.2896-.19336-.39258-.099-.11014-.15122-.14491-.59375-.39453-.0393-.0222-.15684-.0894-.26172-.15039-.15958-.0928-.93798-.54172-1.09766-.63282-.0262-.0149-.13341-.0757-.23828-.13672-.10487-.061-.22242-.13044-.26172-.15234s-.24337-.13716-.45312-.25781c-.20975-.12064-.49025-.28122-.62305-.35742-.29727-.17061-.38539-.1992-.60351-.1875z" style="fill:none;stroke:#3c3c3c;stroke-width:.8;stroke-linecap:round;stroke-linejoin:round;stroke-opacity:.392157"/><path d="m850.49708 225.91349c-.19586.0105-.22878.0256-.6875.28906-.19664.11295-.39039.22234-.42969.24414s-.13273.0754-.20703.11914c-.0743.0437-.15886.0941-.18946.11133-.0506.0285-.31814.18111-1.23242.70703-.17479.10055-.33903.19604-.36523.21094s-.187.10658-.35742.20508-.3369.19429-.3711.21289c-.10129.055-.25159.21432-.30859.32812-.1052.20922-.0977.0771-.0977 2.36914 0 2.02002.00092 2.14682.0449 2.26172.0746.19489.16917.31924.32032.42188.0509.0345.0956.0644.0996.0644s.0859.0448.18359.10156c.0978.0568.18059.10352.18359.10352s.0519.0289.10742.0625c.0555.0336.13258.0794.17188.10156.0906.0512.3746.2131.4375.25.0262.0154.11963.0689.20703.11914.0874.0502.17888.10374.20508.11914.0563.0331.44607.25635.54883.31445.0393.0222.11637.068.17187.10157.0555.0336.10442.0605.10742.0605s.0643.0356.13672.0781c.0724.0425.16383.0952.20313.11719.0393.022.22616.12733.41406.23632.40916.23729.44356.25412.60352.29102.11279.0262.14933.0279.26367.008.0892-.0157.25055-.0698.28515-.0957.0167-.0125.16218-.0973.30664-.17774.0471-.0262.2339-.13338.41407-.23828.18017-.10489.35913-.20837.39843-.23047.0631-.0355.62997-.36069.75586-.43359.0897-.052.36485-.21.43555-.25.0389-.022.10619-.0617.15039-.0879.0943-.056.16537-.0958.26367-.15039.0393-.0218.13274-.0753.20703-.11914.0743-.0437.17456-.10261.22266-.12891s.12382-.0704.16992-.0996c.046-.0292.0878-.0527.0918-.0527.0294 0 .19212-.12517.26172-.20117.10029-.10954.16376-.24035.19726-.40039.0365-.17408.0384-4.10535.002-4.28125-.0308-.14897-.10076-.2896-.19336-.39258-.099-.11014-.15122-.14491-.59375-.39453-.0393-.0222-.15684-.0894-.26172-.15039-.15958-.0928-.93798-.54172-1.09766-.63282-.0262-.0149-.13341-.0757-.23828-.13672-.10487-.061-.22242-.13044-.26172-.15234s-.24337-.13716-.45312-.25781c-.20975-.12064-.49025-.28122-.62305-.35742-.29727-.17061-.38539-.1992-.60351-.1875z" fill="none" stroke="#fff" stroke-linecap="round" stroke-linejoin="round" stroke-width=".5"/><g fill-rule="evenodd"><path d="m850.49688 225.90465c-.19586.0105-.22878.0256-.6875.28906-.19664.11295-.39039.22234-.42969.24414s-.13273.0754-.20703.11914c-.0743.0437-.15886.0941-.18946.11133-.0506.0285-.31814.18111-1.23242.70703-.17479.10055-.33903.19604-.36523.21094s-.187.10658-.35742.20508-.3369.19429-.3711.21289c-.10129.055-.25159.21432-.30859.32812-.1052.20922-.0977.0771-.0977 2.36914 0 2.02002.00092 2.14682.0449 2.26172.0746.19489.16917.31924.32032.42188.0509.0345.0956.0644.0996.0644s.0859.0448.18359.10156c.0978.0568.18059.10352.18359.10352s.0519.0289.10742.0625c.0555.0336.13258.0794.17188.10156.0906.0512.3746.2131.4375.25.0262.0154.11963.0689.20703.11914.0874.0502.17888.10374.20508.11914.0563.0331.44607.25635.54883.31445.0393.0222.11637.068.17187.10157.0555.0336.10442.0605.10742.0605s.0643.0356.13672.0781c.0724.0425.16383.0952.20313.11719.0393.022.22616.12733.41406.23632.40916.23729.44356.25412.60352.29102.11279.0262.14933.0279.26367.008.0892-.0157.25055-.0698.28515-.0957.0167-.0125.16218-.0973.30664-.17774.0471-.0262.2339-.13338.41407-.23828.18017-.10489.35913-.20837.39843-.23047.0631-.0355.62997-.36069.75586-.43359.0897-.052.36485-.21.43555-.25.0389-.022.10619-.0617.15039-.0879.0943-.056.16537-.0958.26367-.15039.0393-.0218.13274-.0753.20703-.11914.0743-.0437.17456-.10261.22266-.12891s.12382-.0704.16992-.0996c.046-.0292.0878-.0527.0918-.0527.0294 0 .19212-.12517.26172-.20117.10029-.10954.16376-.24035.19726-.40039.0365-.17408.0384-4.10535.002-4.28125-.0308-.14897-.10076-.2896-.19336-.39258-.099-.11014-.15122-.14491-.59375-.39453-.0393-.0222-.15684-.0894-.26172-.15039-.15958-.0928-.93798-.54172-1.09766-.63282-.0262-.0149-.13341-.0757-.23828-.13672-.10487-.061-.22242-.13044-.26172-.15234s-.24337-.13716-.45312-.25781c-.20975-.12064-.49025-.28122-.62305-.35742-.29727-.17061-.38539-.1992-.60351-.1875z" fill="#9b4f96"/><path d="m846.40458 233.17148c.10702.16437.15609.16189.61361.42743.19614.11382.38775.22691.42628.25005.0385.0231.13166.0772.20669.11972.075.0425.16092.0905.19114.10841.05.0296.31592.18497 1.22852.7138.17447.10109.33929.19558.36529.21082.026.0152.18581.10866.35632.207.17051.0983.33671.19462.36992.21494.0983.0602.31141.11071.43846.10318.23379-.0135.11562.0461 2.10059-1.09996 1.74938-1.01001 1.85872-1.07422 1.93624-1.16974.13148-.16205.19189-.30613.2052-.48835.004-.0613.008-.11499.006-.11845-.002-.003-.004-.0968-.004-.20978.00029-.11309-.00064-.20815-.002-.21075-.001-.003-.00092-.0594.00042-.12428.001-.0649.002-.15452.002-.19963-.00096-.10406-.003-.43096-.002-.50389.00023-.0304-.00015-.13805-.00034-.23886-.00023-.10079.0004-.20678.00064-.23717.00051-.0653-.001-.51449-.002-.63253-.00042-.0451.00071-.13478.002-.19963.001-.0649.00027-.12073-.001-.12333-.001-.003-.001-.0735-.00072-.15745.00061-.0839.00053-.18948-.00008-.23451-.0006-.045-.003-.25953-.002-.47675.00092-.47299-.002-.51119-.0497-.66817-.0195-.064-.0498-.0964-.0727-.13393l-8.33304 4.82324c.01.0164.01.0308.0212.0486z" fill="#68217a"/><path d="m854.74858 233.08556c.0888-.17487.0922-.21092.0934-.73992.0005-.22677.003-.44926.003-.49419.00077-.0449.001-.15265.00034-.23886-.00069-.0862-.002-.18463-.002-.21975.00061-.0581.002-.36607.004-1.42082.00032-.20165-.00026-.39163-.00006-.42177.00019-.0301.001-.21523.001-.41207-.00009-.19684.00019-.38891.001-.42783.003-.10963-.066-.30047-.1319-.41068l-4.16736 2.41534 4.16621 2.41329c.009-.0167.0218-.0238.0315-.0426z" fill="#813787"/><path d="m850.3625 227.86599v.002c-.37745.0264-.74751.12184-1.07031.28711-1.12178.57435-1.73576 1.75119-1.55664 2.98437.0557.38337.20966.79191.41796 1.10938.0409.0623.078.11709.082.12109s.0408.051.0801.10352c.0983.13116.34692.38018.5.5.43082.3372.99729.5537 1.5586.5957.11997.009.4933-.007.61914-.0254.0612-.009.13541-.0213.16601-.0293s.0911-.0228.13477-.0332c.51119-.12136 1.03892-.44177 1.41992-.86328.10199-.11283.23852-.29293.29492-.39063l.041-.0723-.5918-.3418c-.325-.18752-.60183-.3437-.61523-.3457-.0142-.002-.0477.032-.0801.0801-.15725.23352-.43181.4406-.70703.5332-.1998.0672-.25223.0743-.48438.0742-.25681-.00017-.3972-.0288-.59961-.1211-.15119-.0689-.24913-.13605-.39843-.27539-.25813-.24091-.41641-.57826-.44141-.9414-.0481-.69827.39904-1.31409 1.08594-1.5.16689-.0454.53262-.0511.6875-.01.13788.037.29216.0979.39453.15625.17235.0982.38571.29905.47851.44922.0192.031.0445.0548.0547.0547s.054-.0202.0977-.0449c.0854-.0484.36711-.20996.44531-.25586.0262-.0154.11768-.0689.20508-.11914.0874-.0502.18766-.10821.22266-.12891s.10595-.0604.15625-.0879.0898-.0546.0898-.0606-.0387-.0709-.0879-.14453c-.34931-.52215-.8833-.92885-1.47852-1.125-.3572-.11767-.74364-.16116-1.12109-.13476zm2.67187 2.15234v.18164h-.18164v.36523h.18164v.36329h-.18164v.36523h.18164v.18164h.36524v-.18164h.36328v.18164h.36523v-.18164h.18165v-.36523h-.18165v-.36329h.18165v-.36523h-.18165v-.18164h-.36523v.18164h-.36328v-.18164zm.36524.54687h.36328v.36329h-.36328z" fill="#fff"/></g></g></g></svg>