<svg viewBox="0 0 185.1 59.35" xmlns="http://www.w3.org/2000/svg"><path d="m61.55 38.84v-.7h.58c.25 0 .61 0 .61.32s-.2.38-.48.38zm1 .38a.61.61 0 0 0 .69-.7c0-.49-.32-.77-1-.77h-1.24v2.55h.54v-1.08h.46l.57 1.09h.61zm-.55 2.16a2.36 2.36 0 1 0 -2.36-2.38 2.36 2.36 0 0 0 2.36 2.38m0-.56a1.8 1.8 0 1 1 1.74-1.82 1.7 1.7 0 0 1 -1.6 1.8h-.14" fill="#86764e"/><path d="m55.89 30.13c-5.38-2.9-14.26-4-21.38-4a57.27 57.27 0 0 0 -15 1.8 23.23 23.23 0 0 0 -6.29 2.27c-1.68-6.84-3.48-10.87-8.58-14.83a24.41 24.41 0 0 1 6.05-4.59c2 4.27 4.77 5.05 6 5.19a4.94 4.94 0 0 0 4.84-2.46 6.41 6.41 0 0 0 .87-3.33 10.55 10.55 0 0 0 -1.32-4.84 22.34 22.34 0 0 1 7.56-1.71 15.45 15.45 0 0 0 -.12 1.75c0 3.21 1.07 5.75 3.08 7.13a5.24 5.24 0 0 0 6 0c2.12-1.43 3.26-4.09 3.26-7.44a10.27 10.27 0 0 0 -.09-1.64 24.1 24.1 0 0 1 7.37 1.83 10.46 10.46 0 0 0 -1.41 4.94 6.41 6.41 0 0 0 .91 3.4 5.1 5.1 0 0 0 5.17 2.4c2.48-.35 4.57-2.29 5.84-5.26a23.66 23.66 0 0 1 6 4.76c-5.41 3.47-6.93 7.9-8.76 14.61m-5.89 6.89a61.22 61.22 0 0 1 -15.5 1.75 61.28 61.28 0 0 1 -15.5-1.75c-4-1.08-5.16-2.22-5.37-2.63a16.7 16.7 0 0 1 6.37-3.09 64.34 64.34 0 0 1 14.5-1.49 61.77 61.77 0 0 1 15.5 1.77c4.45 1.2 5.4 2.49 5.4 2.74s-1 1.54-5.4 2.75m18.22-22.55a28.33 28.33 0 0 0 -9.86-7.5l-1.75-.8-.51 1.8c-.88 3.21-2.54 4.55-3.8 4.73a1.84 1.84 0 0 1 -1.9-.85c-.67-1.09-.66-3.34 1.44-6.39l1.08-1.49-1.7-.84a27.85 27.85 0 0 0 -12.37-3.09l-2.11-.07.45 2.06c.94 4.37-.13 6.88-1.45 7.76a1.93 1.93 0 0 1 -2.27 0c-1.25-.86-2.23-3.3-1.25-7.6l.49-2.17-2.81.2c-4 .28-7.08.5-11.9 2.91l-1.73.84 1.09 1.55c2 2.9 2 5.14 1.34 6.27a1.66 1.66 0 0 1 -1.64.87c-1.19-.13-2.84-1.46-3.95-4.79l-.63-1.9-1.73 1c-4.39 2.44-7.56 4.56-9.81 7.79l-.94 1.35 1.35 1c5.59 3.86 7.13 7.08 9.15 15.86a3.36 3.36 0 0 0 -.26 1.29c0 5.36 12.55 7.81 24.21 7.81s24.2-2.45 24.2-7.81a3.27 3.27 0 0 0 -.18-1.08l.19-.7c2.22-8.18 3.22-11.93 9.34-15.12l1.93-1z" fill="#86764e"/><path d="m34.65 18.89a1.73 1.73 0 1 0 1.71 1.75s0 0 0 0a1.72 1.72 0 0 0 -1.71-1.72" fill="#86764e"/><path d="m28.17 19.62a1.73 1.73 0 1 0 0 3.46 1.73 1.73 0 0 0 0-3.46" fill="#86764e"/><path d="m41.3 19.56a1.73 1.73 0 1 0 1.7 1.73 1.73 1.73 0 0 0 -1.73-1.73" fill="#86764e"/><path d="m21.58 20.62a1.73 1.73 0 1 0 1.72 1.74 1.73 1.73 0 0 0 -1.72-1.74z" fill="#86764e"/><path d="m14.88 22.75a1.72 1.72 0 1 0 1.74 1.72 1.72 1.72 0 0 0 -1.74-1.72z" fill="#86764e"/><path d="m47.9 20.65a1.73 1.73 0 1 0 1.72 1.73 1.72 1.72 0 0 0 -1.72-1.73" fill="#86764e"/><path d="m54.6 22.74a1.72 1.72 0 1 0 1.73 1.72 1.72 1.72 0 0 0 -1.73-1.72" fill="#86764e"/><g fill="#00843d"><path d="m88.82 21.29a3.92 3.92 0 0 0 -4.28-3.29c-1.93 0-4.78 1.29-4.78 6.75 0 3.47 1.37 6.59 4.78 6.59a4.13 4.13 0 0 0 4.28-3.63h4c-.8 4.2-3.56 7.13-8.4 7.13-5.14 0-8.82-3.47-8.82-10.14s3.9-10.2 8.88-10.2c5.78 0 8.12 4 8.34 6.83z"/><path d="m95.51 34.29h4v-7.56h4.17c3 0 3.14 1 3.14 3.66a13.12 13.12 0 0 0 .42 3.9h4.48v-.52c-.87-.32-.87-1-.87-3.85 0-3.6-.86-4.19-2.44-4.89a4.62 4.62 0 0 0 3-4.61c0-1.67-.94-5.46-6.07-5.46h-9.83zm4-10.82v-5.17h5c2.35 0 2.81 1.51 2.81 2.53 0 1.91-1 2.64-3.1 2.64z"/><path d="m113.66 24.63c0 9.06 6.72 10.16 9.28 10.16s9.29-1.1 9.29-10.16-6.73-10.17-9.29-10.17-9.28 1.1-9.28 10.17m4 0c0-5.42 3.07-6.76 5.25-6.76s5.24 1.34 5.24 6.76-3.06 6.75-5.24 6.75-5.25-1.35-5.25-6.75"/><path d="m132.45 15h4.31c2.48 10.58 2.72 11.92 3.07 14.12.35-2 .64-4 2.69-14.12h4.28c2.31 10.59 2.51 11.59 2.94 14.12.33-1.82.65-3.49 3.15-14.12h4.11l-5.43 19.32h-3.88c-2-9.48-2.34-11.35-3-15.07h-.06c-.59 3.72-.92 5.11-3 15.07h-3.77z"/><path d="m170.85 14.97h3.77v19.32h-4.04l-7.89-13.78h-.04v13.78h-3.78v-19.32h4.27l7.65 13.45h.06z"/><path d="m13.81 53h1.82a1 1 0 0 0 1.08-1s0-.06 0-.08c0-.55-.33-.74-.85-.74h-1.7zm-.65 3.09h2a1.13 1.13 0 0 0 1.26-1.18c0-.76-.69-.82-1.27-.82h-1.57zm-.27-6h3.11c1.46 0 2.37.32 2.37 1.7a1.62 1.62 0 0 1 -1.37 1.7 1.45 1.45 0 0 1 1 1.42c0 1.58-1.33 2.39-2.79 2.39h-3.86z"/><path d="m21.27 52h1.38l-.21 1a1.93 1.93 0 0 1 1.82-1.11 2.91 2.91 0 0 1 .45 0l-.3 1.41a3 3 0 0 0 -.61-.1c-1.11 0-1.51.84-1.7 1.74l-.49 2.34h-1.44z"/><path d="m29.48 54.77a2.76 2.76 0 0 1 -1.23.26c-.55.06-1.07.2-1.07.86 0 .4.38.59.8.59a1.35 1.35 0 0 0 1.36-1.19zm-3.06-1.14c.18-1.33 1.31-1.74 2.5-1.74.94 0 2.22.2 2.2 1.39a5.62 5.62 0 0 1 -.11.89l-.47 2.13a3.19 3.19 0 0 0 -.07.71 1.05 1.05 0 0 0 0 .31h-1.41v-.52a2.17 2.17 0 0 1 -1.62.66c-1.15 0-1.72-.66-1.72-1.39 0-1 .76-1.64 2-1.8s2-.09 2-.77c0-.52-.55-.64-.92-.64a1 1 0 0 0 -1.07.77z"/><path d="m34.18 52h1.39l-.16.73a2.28 2.28 0 0 1 1.85-.88c1 0 1.54.5 1.54 1.42a6.38 6.38 0 0 1 -.15.91l-.65 3.12h-1.44l.64-3.09a3.72 3.72 0 0 0 .1-.65c0-.32-.36-.54-.7-.54-.88 0-1.33.73-1.48 1.47l-.59 2.81h-1.45z"/><path d="m42.51 55.18a1.05 1.05 0 0 0 .91 1.17h.09c1.08 0 1.59-1.33 1.59-2.24a1 1 0 0 0 -.85-1.11h-.15c-1.09 0-1.58 1.27-1.58 2.2m2.16 1.47a1.74 1.74 0 0 1 -1.58.82 1.9 1.9 0 0 1 -2-2.08c0-1.74.93-3.48 2.88-3.48a1.52 1.52 0 0 1 1.48.85l.54-2.78h1.45l-1.54 7.3h-1.4z"/><path d="m49.28 53.89-.26 1.25h3.07l.26-1.25z"/><path d="m56.84 53h1.82a1 1 0 0 0 1.08-1s0-.06 0-.08c0-.55-.33-.74-.85-.74h-1.7zm-.66 3.09h2a1.13 1.13 0 0 0 1.26-1.18c0-.76-.68-.82-1.26-.82h-1.57zm-.27-6h3.09c1.46 0 2.37.32 2.37 1.7a1.62 1.62 0 0 1 -1.37 1.62 1.45 1.45 0 0 1 1.08 1.48c0 1.58-1.33 2.39-2.79 2.39h-3.91z"/><path d="m68.21 57.3h-1.39l.18-.74a2.27 2.27 0 0 1 -1.85.88c-1 0-1.54-.5-1.54-1.42a6.45 6.45 0 0 1 .15-.91l.65-3.11h1.45l-.64 3.09a3.72 3.72 0 0 0 -.09.64c0 .32.36.54.69.54.88 0 1.33-.73 1.48-1.47l.59-2.8h1.45z"/><path d="m73.71 51.21h-1.46l.27-1.21h1.48zm-1.62.79h1.46l-1.12 5.28h-1.43z"/><path d="m76.7 50.01h1.45l-1.55 7.29h-1.45z"/><path d="m81 55.18a1 1 0 0 0 .91 1.17h.09c1.08 0 1.59-1.33 1.59-2.24a1 1 0 0 0 -.85-1.11h-.15c-1.1 0-1.58 1.27-1.58 2.2m2.17 1.47a1.74 1.74 0 0 1 -1.59.82 1.89 1.89 0 0 1 -2-2.08c0-1.74.93-3.48 2.88-3.48a1.52 1.52 0 0 1 1.48.85l.58-2.78h1.47l-1.54 7.29h-1.46z"/><path d="m89.84 51.21h-1.46l.26-1.21h1.46zm-1.62.79h1.46l-1.12 5.28h-1.47z"/><path d="m92.37 52h1.39l-.16.73a2.28 2.28 0 0 1 1.85-.88c1 0 1.54.5 1.54 1.42a6 6 0 0 1 -.15.91l-.66 3.09h-1.43l.64-3.09a3.72 3.72 0 0 0 .09-.64c0-.32-.36-.54-.7-.54a1.6 1.6 0 0 0 -1.48 1.47l-.59 2.81h-1.44z"/><path d="m100.79 55c0 .62.31 1.16 1 1.16 1 0 1.54-1.11 1.54-2a1 1 0 0 0 -.85-1.13h-.15c-1 0-1.48 1.14-1.48 2m3.35 1.97a2.54 2.54 0 0 1 -2.76 2.3h-.15c-1.07 0-2.26-.46-2.26-1.72h1.45c0 .53.48.76.95.76.92 0 1.19-.81 1.47-1.84a1.73 1.73 0 0 1 -1.45.75 2 2 0 0 1 -2-2q0-.08 0-.17c0-1.54 1-3.18 2.67-3.18a1.59 1.59 0 0 1 1.61 1l.16-.81h1.39z"/><path d="m113.69 53.44h1.63a1.17 1.17 0 0 0 1.32-1.27c0-.73-.57-.91-1.13-.91h-1.37zm-.9-3.43h2.92c1.47 0 2.53.51 2.53 2.13a2.61 2.61 0 0 1 -2.66 2.56h-2.18l-.55 2.61h-1.6z"/><path d="m123.33 54.77a2.76 2.76 0 0 1 -1.23.26c-.55.06-1.07.2-1.07.86 0 .4.38.59.79.59a1.36 1.36 0 0 0 1.36-1.19zm-3.06-1.14c.19-1.33 1.31-1.74 2.5-1.74.94 0 2.22.2 2.19 1.39a5.29 5.29 0 0 1 -.11.89l-.47 2.13a3.38 3.38 0 0 0 -.07.71 1.15 1.15 0 0 0 0 .31h-1.45v-.52a2.17 2.17 0 0 1 -1.61.66c-1.16 0-1.72-.66-1.72-1.39 0-1 .77-1.64 2-1.8s2-.09 2-.77c0-.52-.55-.64-.92-.64a1 1 0 0 0 -1.07.77z"/><path d="m131.06 53.85c0-.62-.34-.88-1-.88-1.1 0-1.48 1.33-1.48 2.24 0 .63.26 1.14 1 1.14a1.24 1.24 0 0 0 1.18-1h1.45a2.73 2.73 0 0 1 -2.73 2.07 2.07 2.07 0 0 1 -2.35-2.27 3 3 0 0 1 2.68-3.28h.32c1.29 0 2.34.57 2.37 2z"/><path d="m135.66 50.01h1.45l-.83 3.96.01.02 2.09-1.97h1.78l-2.37 2.01 1.37 3.27h-1.6l-.86-2.36-.76.64-.36 1.72h-1.45z"/><path d="m145.14 54.77a2.77 2.77 0 0 1 -1.23.26c-.55.06-1.07.2-1.07.86 0 .4.38.59.79.59.9 0 1.19-.62 1.36-1.19zm-3.06-1.14c.18-1.33 1.31-1.74 2.5-1.74.94 0 2.22.2 2.19 1.39a5.29 5.29 0 0 1 -.11.89l-.47 2.13a3.38 3.38 0 0 0 -.07.71 1.15 1.15 0 0 0 0 .31h-1.45v-.52a2.16 2.16 0 0 1 -1.61.66c-1.15 0-1.72-.66-1.72-1.39 0-1 .76-1.64 2-1.8s2-.09 2-.77c0-.52-.55-.64-.92-.64a1 1 0 0 0 -1.07.77z"/><path d="m150.48 55c0 .62.31 1.16 1 1.16 1 0 1.54-1.11 1.54-2a1 1 0 0 0 -.85-1.13h-.17c-1 0-1.48 1.14-1.48 2m3.37 1.97a2.54 2.54 0 0 1 -2.76 2.3h-.15c-1.07 0-2.26-.46-2.26-1.72h1.45c0 .53.48.76.95.76.92 0 1.19-.81 1.47-1.84a1.73 1.73 0 0 1 -1.45.75 2 2 0 0 1 -2-2q0-.08 0-.17c0-1.54 1-3.18 2.67-3.18a1.59 1.59 0 0 1 1.61 1l.16-.81h1.42z"/><path d="m159.25 51.21h-1.46l.21-1.21h1.46zm-1.62.82h1.46l-1.09 5.27h-1.46z"/><path d="m161.79 52h1.39l-.16.73a2.28 2.28 0 0 1 1.85-.88c1 0 1.54.5 1.54 1.42a6.38 6.38 0 0 1 -.15.91l-.65 3.09h-1.45l.64-3.09a3.72 3.72 0 0 0 .09-.64c0-.32-.36-.54-.7-.54-.88 0-1.33.73-1.48 1.47l-.59 2.81h-1.45z"/><path d="m170.2 55c0 .62.31 1.16 1 1.16 1 0 1.54-1.11 1.54-2a1 1 0 0 0 -.85-1.13h-.15c-1 0-1.48 1.14-1.48 2m3.35 1.97a2.54 2.54 0 0 1 -2.76 2.3h-.15c-1.07 0-2.26-.46-2.26-1.72h1.45c0 .53.48.76.95.76.92 0 1.19-.81 1.47-1.84a1.74 1.74 0 0 1 -1.45.75 2 2 0 0 1 -2-2q0-.08 0-.17c0-1.54 1-3.18 2.66-3.18a1.59 1.59 0 0 1 1.61 1l.17-.81h1.39z"/><path d="m179.82 51.46h-1.32l-.73 3.48h-.52l.73-3.48h-1.31l.09-.44h3.16z"/><path d="m184.38 51.02-1.94 3.37h-.01l-.52-3.37h-.73l-.83 3.92h.51l.68-3.43h.01l.51 3.43h.5l2-3.43h.02l-.8 3.43h.5l.82-3.92z"/></g></svg>